<svg id="arrow-left" xmlns="http://www.w3.org/2000/svg" width="22.899" height="22.899" viewBox="0 0 22.899 22.899">
  <path id="Vector" d="M6.5,13.012A.708.708,0,0,1,6,12.8L.208,7.01A.72.72,0,0,1,.208,6L6,.208A.715.715,0,1,1,7.01,1.219L1.725,6.5,7.01,11.79a.72.72,0,0,1,0,1.011A.692.692,0,0,1,6.5,13.012Z" transform="translate(2.626 4.945)" fill="#fff"/>
  <path id="Vector-2" data-name="Vector" d="M13.488,1.431H.575A.662.662,0,0,1,0,.716.662.662,0,0,1,.575,0H13.488a.662.662,0,0,1,.575.716A.662.662,0,0,1,13.488,1.431Z" transform="translate(2.786 10.734)" fill="#fff"/>
  <path id="Vector-3" data-name="Vector" d="M0,0H22.9V22.9H0Z" fill="none" opacity="0"/>
</svg>
