<svg id="bag-2" xmlns="http://www.w3.org/2000/svg" width="23.298" height="23.298" viewBox="0 0 23.298 23.298">
  <path id="Vector" d="M9.465,7.168a.733.733,0,0,1-.728-.728V5.1A3.669,3.669,0,0,0,7.543,2.4,3.6,3.6,0,0,0,4.737,1.48,3.924,3.924,0,0,0,1.456,5.295v.942a.733.733,0,0,1-.728.728A.733.733,0,0,1,0,6.236V5.285A5.381,5.381,0,0,1,4.6.023a5.037,5.037,0,0,1,3.922,1.3A5.116,5.116,0,0,1,10.193,5.1V6.44A.733.733,0,0,1,9.465,7.168Z" transform="translate(6.552 1.209)" fill="#fff"/>
  <path id="Vector-2" data-name="Vector" d="M12.138,15.046H6.313c-4.485,0-5.32-2.087-5.533-4.116L.052,5.116A4.607,4.607,0,0,1,.926,1.437C1.8.466,3.246,0,5.343,0h7.766c2.106,0,3.553.476,4.417,1.437A4.617,4.617,0,0,1,18.4,5.1l-.728,5.834C17.457,12.959,16.623,15.046,12.138,15.046Zm-6.8-13.59c-1.641,0-2.767.32-3.339.961a3.141,3.141,0,0,0-.5,2.534l.728,5.815c.165,1.553.592,2.835,4.087,2.835h5.824c3.495,0,3.922-1.272,4.087-2.815l.728-5.834a3.147,3.147,0,0,0-.5-2.524c-.573-.65-1.7-.971-3.339-.971Z" transform="translate(2.423 7.038)" fill="#fff"/>
  <path id="Vector-3" data-name="Vector" d="M.98,1.941A.971.971,0,1,1,1.941.971.965.965,0,0,1,.98,1.941Z" transform="translate(13.988 10.824)" fill="#fff"/>
  <path id="Vector-4" data-name="Vector" d="M.98,1.941A.971.971,0,1,1,1.941.971.965.965,0,0,1,.98,1.941Z" transform="translate(7.193 10.824)" fill="#fff"/>
  <path id="Vector-5" data-name="Vector" d="M0,0H23.3V23.3H0Z" fill="none" opacity="0"/>
</svg>
