<svg xmlns="http://www.w3.org/2000/svg" width="7.949" height="7.949" viewBox="0 0 7.949 7.949">
  <g id="star" transform="translate(0 0)">
    <path id="Vector" d="M3.885.474,4.467,1.64a.72.72,0,0,0,.47.348l1.057.176c.676.113.835.6.348,1.086l-.821.821a.719.719,0,0,0-.172.6l.235,1.017c.185.8-.242,1.116-.954.7L3.639,5.8a.716.716,0,0,0-.656,0l-.99.586c-.709.421-1.139.106-.954-.7l.235-1.017a.719.719,0,0,0-.172-.6L.281,3.25C-.2,2.766-.047,2.276.629,2.164l1.057-.176a.721.721,0,0,0,.467-.348L2.735.474C3.053-.158,3.57-.158,3.885.474Z" transform="translate(0.662 0)" fill="#051111"/>
    <path id="Vector-2" data-name="Vector" d="M0,0H7.949V7.949H0Z" transform="translate(0 0)" fill="#051111" opacity="0"/>
  </g>
</svg>
